<?xml version="1.0" encoding="UTF-8" standalone="no"?>
<!-- Created with Inkscape (http://www.inkscape.org/) -->
<svg
   xmlns:ns0="http://www.iki.fi/pav/software/textext/"
   xmlns:dc="http://purl.org/dc/elements/1.1/"
   xmlns:cc="http://creativecommons.org/ns#"
   xmlns:rdf="http://www.w3.org/1999/02/22-rdf-syntax-ns#"
   xmlns:svg="http://www.w3.org/2000/svg"
   xmlns="http://www.w3.org/2000/svg"
   xmlns:xlink="http://www.w3.org/1999/xlink"
   xmlns:sodipodi="http://sodipodi.sourceforge.net/DTD/sodipodi-0.dtd"
   xmlns:inkscape="http://www.inkscape.org/namespaces/inkscape"
   width="744.09448819"
   height="1052.3622047"
   id="svg2"
   sodipodi:version="0.32"
   inkscape:version="0.46"
   sodipodi:docname="principal_stress.svg"
   inkscape:output_extension="org.inkscape.output.svg.inkscape"
   inkscape:export-filename="/aos/home/huardda/LocalHome/10kmf90/docs/source/principal_stress.png"
   inkscape:export-xdpi="300"
   inkscape:export-ydpi="300">
  <sodipodi:namedview
     id="base"
     pagecolor="#ffffff"
     bordercolor="#666666"
     borderopacity="1.0"
     gridtolerance="10000"
     guidetolerance="10"
     objecttolerance="10"
     inkscape:pageopacity="0.0"
     inkscape:pageshadow="2"
     inkscape:zoom="5.12"
     inkscape:cx="144.76187"
     inkscape:cy="522.47521"
     inkscape:document-units="px"
     inkscape:current-layer="layer1"
     showgrid="false"
     inkscape:window-width="1549"
     inkscape:window-height="974"
     inkscape:window-x="0"
     inkscape:window-y="25" />
  <defs
     id="defs4">
    <marker
       style="overflow:visible;"
       id="Arrow1Mend"
       refX="0.0"
       refY="0.0"
       orient="auto"
       inkscape:stockid="Arrow1Mend">
      <path
         transform="scale(0.4) rotate(180) translate(10,0)"
         style="fill-rule:evenodd;stroke:#000000;stroke-width:1.0pt;marker-start:none;"
         d="M 0.0,0.0 L 5.0,-5.0 L -12.5,0.0 L 5.0,5.0 L 0.0,0.0 z "
         id="path3690" />
    </marker>
    <marker
       style="overflow:visible"
       id="Arrow1Mstart"
       refX="0.0"
       refY="0.0"
       orient="auto"
       inkscape:stockid="Arrow1Mstart">
      <path
         transform="scale(0.4) translate(10,0)"
         style="fill-rule:evenodd;stroke:#000000;stroke-width:1.0pt;marker-start:none"
         d="M 0.0,0.0 L 5.0,-5.0 L -12.5,0.0 L 5.0,5.0 L 0.0,0.0 z "
         id="path3687" />
    </marker>
    <marker
       style="overflow:visible"
       id="Arrow1Lstart"
       refX="0.0"
       refY="0.0"
       orient="auto"
       inkscape:stockid="Arrow1Lstart">
      <path
         transform="scale(0.8) translate(12.5,0)"
         style="fill-rule:evenodd;stroke:#000000;stroke-width:1.0pt;marker-start:none"
         d="M 0.0,0.0 L 5.0,-5.0 L -12.5,0.0 L 5.0,5.0 L 0.0,0.0 z "
         id="path3681" />
    </marker>
    <marker
       style="overflow:visible;"
       id="Arrow1Lend"
       refX="0.0"
       refY="0.0"
       orient="auto"
       inkscape:stockid="Arrow1Lend">
      <path
         transform="scale(0.8) rotate(180) translate(12.5,0)"
         style="fill-rule:evenodd;stroke:#000000;stroke-width:1.0pt;marker-start:none;"
         d="M 0.0,0.0 L 5.0,-5.0 L -12.5,0.0 L 5.0,5.0 L 0.0,0.0 z "
         id="path3684" />
    </marker>
    <inkscape:perspective
       id="perspective10"
       inkscape:persp3d-origin="372.04724 : 350.78739 : 1"
       inkscape:vp_z="744.09448 : 526.18109 : 1"
       inkscape:vp_y="0 : 1000 : 0"
       inkscape:vp_x="0 : 526.18109 : 1"
       sodipodi:type="inkscape:persp3d" />
    <defs
       id="defs3027">
      <g
         id="g3029">
        <symbol
           style="overflow:visible"
           overflow="visible"
           id="textext-c5752f74-0">
          <path
             style="stroke:none"
             d="M 2.328125,-4.4375 C 2.328125,-4.625 2.328125,-4.625 2.125,-4.625 C 1.671875,-4.1875 1.046875,-4.1875 0.765625,-4.1875 L 0.765625,-3.9375 C 0.921875,-3.9375 1.390625,-3.9375 1.765625,-4.125 L 1.765625,-0.578125 C 1.765625,-0.34375 1.765625,-0.25 1.078125,-0.25 L 0.8125,-0.25 L 0.8125,0 C 0.9375,0 1.796875,-0.03125 2.046875,-0.03125 C 2.265625,-0.03125 3.140625,0 3.296875,0 L 3.296875,-0.25 L 3.03125,-0.25 C 2.328125,-0.25 2.328125,-0.34375 2.328125,-0.578125 L 2.328125,-4.4375 z"
             id="path3032" />
        </symbol>
        <symbol
           style="overflow:visible"
           overflow="visible"
           id="textext-c5752f74-1">
          <path
             style="stroke:none"
             d="M 5.15625,-3.71875 C 5.28125,-3.71875 5.640625,-3.71875 5.640625,-4.046875 C 5.640625,-4.296875 5.4375,-4.296875 5.25,-4.296875 L 2.984375,-4.296875 C 1.484375,-4.296875 0.375,-2.640625 0.375,-1.46875 C 0.375,-0.59375 0.96875,0.109375 1.875,0.109375 C 3.046875,0.109375 4.375,-1.09375 4.375,-2.625 C 4.375,-2.796875 4.375,-3.28125 4.0625,-3.71875 L 5.15625,-3.71875 z M 1.875,-0.109375 C 1.390625,-0.109375 1,-0.46875 1,-1.1875 C 1,-1.484375 1.109375,-2.296875 1.46875,-2.890625 C 1.875,-3.578125 2.484375,-3.71875 2.8125,-3.71875 C 3.65625,-3.71875 3.734375,-3.0625 3.734375,-2.75 C 3.734375,-2.28125 3.53125,-1.46875 3.1875,-0.953125 C 2.8125,-0.375 2.265625,-0.109375 1.875,-0.109375 z"
             id="path3035" />
        </symbol>
      </g>
    </defs>
  </defs>
  <metadata
     id="metadata7">
    <rdf:RDF>
      <cc:Work
         rdf:about="">
        <dc:format>image/svg+xml</dc:format>
        <dc:type
           rdf:resource="http://purl.org/dc/dcmitype/StillImage" />
      </cc:Work>
    </rdf:RDF>
  </metadata>
  <g
     id="layer1"
     inkscape:groupmode="layer"
     inkscape:label="Layer 1">
    <g
       style="opacity:0.38152615"
       id="g6987"
       ns0:preamble=""
       ns0:text="$$\\sigma_{22}$$\n"
       transform="matrix(0.5494341,0,0,0.5494341,55.6735,489.355)">
      <defs
         id="defs6989">
        <g
           id="g6991">
          <symbol
             id="symbol6993"
             overflow="visible"
             style="overflow:visible">
            <path
               id="path6995"
               d="M 3.515625,-1.265625 L 3.28125,-1.265625 C 3.265625,-1.109375 3.1875,-0.703125 3.09375,-0.640625 C 3.046875,-0.59375 2.515625,-0.59375 2.40625,-0.59375 L 1.125,-0.59375 C 1.859375,-1.234375 2.109375,-1.4375 2.515625,-1.765625 C 3.03125,-2.171875 3.515625,-2.609375 3.515625,-3.265625 C 3.515625,-4.109375 2.78125,-4.625 1.890625,-4.625 C 1.03125,-4.625 0.4375,-4.015625 0.4375,-3.375 C 0.4375,-3.03125 0.734375,-2.984375 0.8125,-2.984375 C 0.96875,-2.984375 1.171875,-3.109375 1.171875,-3.359375 C 1.171875,-3.484375 1.125,-3.734375 0.765625,-3.734375 C 0.984375,-4.21875 1.453125,-4.375 1.78125,-4.375 C 2.484375,-4.375 2.84375,-3.828125 2.84375,-3.265625 C 2.84375,-2.65625 2.40625,-2.1875 2.1875,-1.9375 L 0.515625,-0.265625 C 0.4375,-0.203125 0.4375,-0.1875 0.4375,0 L 3.3125,0 L 3.515625,-1.265625 z"
               style="stroke:none" />
          </symbol>
          <symbol
             id="symbol6997"
             overflow="visible"
             style="overflow:visible">
            <path
               id="path6999"
               d="M 5.15625,-3.71875 C 5.28125,-3.71875 5.640625,-3.71875 5.640625,-4.046875 C 5.640625,-4.296875 5.4375,-4.296875 5.25,-4.296875 L 2.984375,-4.296875 C 1.484375,-4.296875 0.375,-2.640625 0.375,-1.46875 C 0.375,-0.59375 0.96875,0.109375 1.875,0.109375 C 3.046875,0.109375 4.375,-1.09375 4.375,-2.625 C 4.375,-2.796875 4.375,-3.28125 4.0625,-3.71875 L 5.15625,-3.71875 z M 1.875,-0.109375 C 1.390625,-0.109375 1,-0.46875 1,-1.1875 C 1,-1.484375 1.109375,-2.296875 1.46875,-2.890625 C 1.875,-3.578125 2.484375,-3.71875 2.8125,-3.71875 C 3.65625,-3.71875 3.734375,-3.0625 3.734375,-2.75 C 3.734375,-2.28125 3.53125,-1.46875 3.1875,-0.953125 C 2.8125,-0.375 2.265625,-0.109375 1.875,-0.109375 z"
               style="stroke:none" />
          </symbol>
        </g>
      </defs>
      <g
         id="g7001">
        <g
           id="g7003"
           style="opacity:1;fill:#000000">
          <use
             id="use7005"
             y="134.76469"
             x="388.22101"
             xlink:href="#textext-be332b24-1"
             width="744.09448"
             height="1052.3622" />
        </g>
        <g
           id="g7007"
           style="opacity:1;fill:#000000">
          <use
             id="use7009"
             y="136.25909"
             x="393.91379"
             xlink:href="#textext-be332b24-0"
             width="744.09448"
             height="1052.3622" />
          <use
             id="use7011"
             y="136.25909"
             x="397.8819"
             xlink:href="#textext-be332b24-0"
             width="744.09448"
             height="1052.3622" />
        </g>
      </g>
    </g>
    <g
       id="g7010"
       transform="translate(-116.56213,23.478155)"
       style="opacity:0.64257028">
      <path
         id="path6955"
         d="M 199.69271,451.70901 L 200.14631,568.75351 L 323.06331,569.72081"
         style="opacity:0.38152615000000001;fill:none;fill-opacity:0.75000000000000000;fill-rule:evenodd;stroke:#000000;stroke-width:0.62512045999999999;stroke-linecap:butt;stroke-linejoin:miter;marker-start:url(#Arrow1Mstart);marker-end:url(#Arrow1Mend);stroke-miterlimit:4;stroke-dasharray:none;stroke-opacity:1" />
      <g
         id="g7073"
         ns0:preamble=""
         ns0:text="$$x$$"
         transform="matrix(1.216756,0,0,1.216756,-174.40179,415.76951)"
         style="opacity:0.38152615000000001">
        <defs
           id="defs7075">
          <g
             id="g7077">
            <symbol
               style="overflow:visible"
               id="symbol7079"
               overflow="visible">
              <path
                 id="path7081"
                 d="M 3.328125,-3 C 3.390625,-3.265625 3.609375,-4.1875 4.3125,-4.1875 C 4.359375,-4.1875 4.59375,-4.1875 4.8125,-4.046875 C 4.53125,-4 4.328125,-3.75 4.328125,-3.515625 C 4.328125,-3.359375 4.4375,-3.171875 4.703125,-3.171875 C 4.921875,-3.171875 5.25,-3.34375 5.25,-3.75 C 5.25,-4.265625 4.65625,-4.40625 4.3125,-4.40625 C 3.75,-4.40625 3.390625,-3.875 3.28125,-3.640625 C 3.03125,-4.296875 2.484375,-4.40625 2.203125,-4.40625 C 1.171875,-4.40625 0.59375,-3.109375 0.59375,-2.859375 C 0.59375,-2.765625 0.703125,-2.765625 0.71875,-2.765625 C 0.796875,-2.765625 0.828125,-2.78125 0.84375,-2.875 C 1.1875,-3.9375 1.84375,-4.1875 2.1875,-4.1875 C 2.375,-4.1875 2.71875,-4.09375 2.71875,-3.515625 C 2.71875,-3.203125 2.546875,-2.53125 2.1875,-1.140625 C 2.015625,-0.53125 1.671875,-0.109375 1.234375,-0.109375 C 1.171875,-0.109375 0.953125,-0.109375 0.734375,-0.234375 C 0.984375,-0.28125 1.203125,-0.5 1.203125,-0.78125 C 1.203125,-1.046875 0.984375,-1.125 0.84375,-1.125 C 0.53125,-1.125 0.28125,-0.859375 0.28125,-0.546875 C 0.28125,-0.09375 0.78125,0.109375 1.21875,0.109375 C 1.875,0.109375 2.234375,-0.59375 2.265625,-0.640625 C 2.390625,-0.28125 2.75,0.109375 3.34375,0.109375 C 4.375,0.109375 4.9375,-1.171875 4.9375,-1.421875 C 4.9375,-1.515625 4.84375,-1.515625 4.8125,-1.515625 C 4.734375,-1.515625 4.703125,-1.484375 4.6875,-1.40625 C 4.359375,-0.34375 3.6875,-0.109375 3.359375,-0.109375 C 2.96875,-0.109375 2.8125,-0.421875 2.8125,-0.765625 C 2.8125,-0.984375 2.875,-1.203125 2.984375,-1.640625 L 3.328125,-3 z"
                 style="stroke:none" />
            </symbol>
          </g>
        </defs>
        <g
           id="g7083">
          <g
             id="g7085"
             style="opacity:1;fill:#000000">
            <g
               transform="translate(392.4407,134.76469)"
               id="use7087">
              <path
                 id="path6806"
                 d="M 3.328125,-3 C 3.390625,-3.265625 3.609375,-4.1875 4.3125,-4.1875 C 4.359375,-4.1875 4.59375,-4.1875 4.8125,-4.046875 C 4.53125,-4 4.328125,-3.75 4.328125,-3.515625 C 4.328125,-3.359375 4.4375,-3.171875 4.703125,-3.171875 C 4.921875,-3.171875 5.25,-3.34375 5.25,-3.75 C 5.25,-4.265625 4.65625,-4.40625 4.3125,-4.40625 C 3.75,-4.40625 3.390625,-3.875 3.28125,-3.640625 C 3.03125,-4.296875 2.484375,-4.40625 2.203125,-4.40625 C 1.171875,-4.40625 0.59375,-3.109375 0.59375,-2.859375 C 0.59375,-2.765625 0.703125,-2.765625 0.71875,-2.765625 C 0.796875,-2.765625 0.828125,-2.78125 0.84375,-2.875 C 1.1875,-3.9375 1.84375,-4.1875 2.1875,-4.1875 C 2.375,-4.1875 2.71875,-4.09375 2.71875,-3.515625 C 2.71875,-3.203125 2.546875,-2.53125 2.1875,-1.140625 C 2.015625,-0.53125 1.671875,-0.109375 1.234375,-0.109375 C 1.171875,-0.109375 0.953125,-0.109375 0.734375,-0.234375 C 0.984375,-0.28125 1.203125,-0.5 1.203125,-0.78125 C 1.203125,-1.046875 0.984375,-1.125 0.84375,-1.125 C 0.53125,-1.125 0.28125,-0.859375 0.28125,-0.546875 C 0.28125,-0.09375 0.78125,0.109375 1.21875,0.109375 C 1.875,0.109375 2.234375,-0.59375 2.265625,-0.640625 C 2.390625,-0.28125 2.75,0.109375 3.34375,0.109375 C 4.375,0.109375 4.9375,-1.171875 4.9375,-1.421875 C 4.9375,-1.515625 4.84375,-1.515625 4.8125,-1.515625 C 4.734375,-1.515625 4.703125,-1.484375 4.6875,-1.40625 C 4.359375,-0.34375 3.6875,-0.109375 3.359375,-0.109375 C 2.96875,-0.109375 2.8125,-0.421875 2.8125,-0.765625 C 2.8125,-0.984375 2.875,-1.203125 2.984375,-1.640625 L 3.328125,-3 z"
                 style="stroke:none" />
            </g>
          </g>
        </g>
      </g>
      <g
         inkscape:transform-center-y="-5.4544229"
         inkscape:transform-center-x="5.194843"
         transform="matrix(1.091864,0,0,1.091864,-239.13309,320.66619)"
         ns0:text="$$y$$\n"
         ns0:preamble=""
         id="g7089"
         style="opacity:0.38152615000000001">
        <defs
           id="defs7091">
          <g
             id="g7093">
            <symbol
               style="overflow:visible"
               overflow="visible"
               id="symbol7095">
              <path
                 style="stroke:none"
                 d="M 4.84375,-3.796875 C 4.875,-3.9375 4.875,-3.953125 4.875,-4.015625 C 4.875,-4.203125 4.734375,-4.296875 4.59375,-4.296875 C 4.484375,-4.296875 4.328125,-4.234375 4.234375,-4.078125 C 4.21875,-4.03125 4.140625,-3.71875 4.09375,-3.546875 C 4.03125,-3.28125 3.96875,-3.015625 3.90625,-2.75 L 3.453125,-0.953125 C 3.40625,-0.8125 2.984375,-0.109375 2.328125,-0.109375 C 1.828125,-0.109375 1.71875,-0.546875 1.71875,-0.921875 C 1.71875,-1.375 1.875,-1.984375 2.21875,-2.859375 C 2.375,-3.28125 2.421875,-3.390625 2.421875,-3.578125 C 2.421875,-4.03125 2.09375,-4.40625 1.609375,-4.40625 C 0.65625,-4.40625 0.28125,-2.953125 0.28125,-2.859375 C 0.28125,-2.765625 0.390625,-2.765625 0.40625,-2.765625 C 0.5,-2.765625 0.515625,-2.78125 0.5625,-2.953125 C 0.84375,-3.875 1.234375,-4.1875 1.578125,-4.1875 C 1.65625,-4.1875 1.828125,-4.1875 1.828125,-3.859375 C 1.828125,-3.609375 1.71875,-3.359375 1.65625,-3.171875 C 1.25,-2.109375 1.078125,-1.546875 1.078125,-1.078125 C 1.078125,-0.1875 1.703125,0.109375 2.296875,0.109375 C 2.671875,0.109375 3.015625,-0.0625 3.296875,-0.34375 C 3.171875,0.171875 3.046875,0.671875 2.640625,1.1875 C 2.390625,1.53125 2.015625,1.828125 1.546875,1.828125 C 1.40625,1.828125 0.96875,1.796875 0.796875,1.40625 C 0.953125,1.40625 1.078125,1.40625 1.21875,1.28125 C 1.328125,1.1875 1.421875,1.0625 1.421875,0.875 C 1.421875,0.5625 1.15625,0.53125 1.0625,0.53125 C 0.828125,0.53125 0.5,0.6875 0.5,1.171875 C 0.5,1.671875 0.9375,2.046875 1.546875,2.046875 C 2.578125,2.046875 3.609375,1.140625 3.875,0.015625 L 4.84375,-3.796875 z"
                 id="path7097" />
            </symbol>
          </g>
        </defs>
        <g
           id="g7099">
          <g
             style="opacity:1;fill:#000000"
             id="g7101">
            <g
               id="use7103"
               transform="translate(392.66669,134.76469)">
              <path
                 style="stroke:none"
                 d="M 4.84375,-3.796875 C 4.875,-3.9375 4.875,-3.953125 4.875,-4.015625 C 4.875,-4.203125 4.734375,-4.296875 4.59375,-4.296875 C 4.484375,-4.296875 4.328125,-4.234375 4.234375,-4.078125 C 4.21875,-4.03125 4.140625,-3.71875 4.09375,-3.546875 C 4.03125,-3.28125 3.96875,-3.015625 3.90625,-2.75 L 3.453125,-0.953125 C 3.40625,-0.8125 2.984375,-0.109375 2.328125,-0.109375 C 1.828125,-0.109375 1.71875,-0.546875 1.71875,-0.921875 C 1.71875,-1.375 1.875,-1.984375 2.21875,-2.859375 C 2.375,-3.28125 2.421875,-3.390625 2.421875,-3.578125 C 2.421875,-4.03125 2.09375,-4.40625 1.609375,-4.40625 C 0.65625,-4.40625 0.28125,-2.953125 0.28125,-2.859375 C 0.28125,-2.765625 0.390625,-2.765625 0.40625,-2.765625 C 0.5,-2.765625 0.515625,-2.78125 0.5625,-2.953125 C 0.84375,-3.875 1.234375,-4.1875 1.578125,-4.1875 C 1.65625,-4.1875 1.828125,-4.1875 1.828125,-3.859375 C 1.828125,-3.609375 1.71875,-3.359375 1.65625,-3.171875 C 1.25,-2.109375 1.078125,-1.546875 1.078125,-1.078125 C 1.078125,-0.1875 1.703125,0.109375 2.296875,0.109375 C 2.671875,0.109375 3.015625,-0.0625 3.296875,-0.34375 C 3.171875,0.171875 3.046875,0.671875 2.640625,1.1875 C 2.390625,1.53125 2.015625,1.828125 1.546875,1.828125 C 1.40625,1.828125 0.96875,1.796875 0.796875,1.40625 C 0.953125,1.40625 1.078125,1.40625 1.21875,1.28125 C 1.328125,1.1875 1.421875,1.0625 1.421875,0.875 C 1.421875,0.5625 1.15625,0.53125 1.0625,0.53125 C 0.828125,0.53125 0.5,0.6875 0.5,1.171875 C 0.5,1.671875 0.9375,2.046875 1.546875,2.046875 C 2.578125,2.046875 3.609375,1.140625 3.875,0.015625 L 4.84375,-3.796875 z"
                 id="path6426" />
            </g>
          </g>
        </g>
      </g>
    </g>
    <path
       id="path3167"
       d="M 57.749764,478.32287 L 83.713084,592.45226 L 203.88356,566.59516"
       style="fill:none;fill-opacity:0.75;fill-rule:evenodd;stroke:#000000;stroke-width:0.62512046;stroke-linecap:butt;stroke-linejoin:miter;marker-start:url(#Arrow1Mstart);marker-end:url(#Arrow1Mend);stroke-miterlimit:4;stroke-dasharray:none;stroke-opacity:1" />
    <rect
       y="526.67926"
       x="-8.0145359"
       height="47.517914"
       width="47.449871"
       id="rect2407"
       style="opacity:0.51807233;fill:#000000;fill-opacity:0.2926829;fill-rule:evenodd;stroke:#000000;stroke-width:0.52063328;stroke-linejoin:miter;stroke-miterlimit:4;stroke-dasharray:none;stroke-opacity:1"
       transform="matrix(0.9759393,-0.2180425,0.2180425,0.9759393,0,0)" />
    <path
       id="path4597"
       d="M 127.21674,494.96574 C 130.07086,507.74053 130.08717,507.81353 130.08717,507.81353"
       style="fill:none;fill-opacity:0.75;fill-rule:evenodd;stroke:#000000;stroke-width:0.2826184;stroke-linecap:butt;stroke-linejoin:miter;marker-end:url(#Arrow1Mend);stroke-miterlimit:4;stroke-dasharray:none;stroke-opacity:1" />
    <path
       id="path4599"
       d="M 144.17887,572.1917 C 141.32475,559.41691 141.30844,559.34391 141.30844,559.34391"
       style="fill:none;fill-opacity:0.75;fill-rule:evenodd;stroke:#000000;stroke-width:0.2826184;stroke-linecap:butt;stroke-linejoin:miter;marker-end:url(#Arrow1Mend);stroke-miterlimit:4;stroke-dasharray:none;stroke-opacity:1" />
    <path
       id="path4601"
       d="M 78.784209,547.22628 C 109.7003,540.31907 109.87696,540.2796 109.87696,540.2796"
       style="fill:none;fill-opacity:0.75;fill-rule:evenodd;stroke:#000000;stroke-width:0.41618916;stroke-linecap:butt;stroke-linejoin:miter;marker-end:url(#Arrow1Mend);stroke-miterlimit:4;stroke-dasharray:none;stroke-opacity:1" />
    <path
       id="path4603"
       d="M 192.99392,521.71827 C 162.08387,528.62414 161.90724,528.6636 161.90724,528.6636"
       style="fill:none;fill-opacity:0.75;fill-rule:evenodd;stroke:#000000;stroke-width:0.41566363;stroke-linecap:butt;stroke-linejoin:miter;marker-end:url(#Arrow1Mend);stroke-miterlimit:4;stroke-dasharray:none;stroke-opacity:1" />
    <g
       id="g4122"
       ns0:preamble=""
       ns0:text="$$x\'$$"
       transform="matrix(1.18748,-0.2653045,0.2653045,1.18748,-315.18011,524.81652)">
      <defs
         id="defs4124">
        <g
           id="g4126">
          <symbol
             style="overflow:visible"
             id="textext-ead02958-0"
             overflow="visible">
            <path
               id="path4129"
               d="M 3.328125,-3 C 3.390625,-3.265625 3.609375,-4.1875 4.3125,-4.1875 C 4.359375,-4.1875 4.59375,-4.1875 4.8125,-4.046875 C 4.53125,-4 4.328125,-3.75 4.328125,-3.515625 C 4.328125,-3.359375 4.4375,-3.171875 4.703125,-3.171875 C 4.921875,-3.171875 5.25,-3.34375 5.25,-3.75 C 5.25,-4.265625 4.65625,-4.40625 4.3125,-4.40625 C 3.75,-4.40625 3.390625,-3.875 3.28125,-3.640625 C 3.03125,-4.296875 2.484375,-4.40625 2.203125,-4.40625 C 1.171875,-4.40625 0.59375,-3.109375 0.59375,-2.859375 C 0.59375,-2.765625 0.703125,-2.765625 0.71875,-2.765625 C 0.796875,-2.765625 0.828125,-2.78125 0.84375,-2.875 C 1.1875,-3.9375 1.84375,-4.1875 2.1875,-4.1875 C 2.375,-4.1875 2.71875,-4.09375 2.71875,-3.515625 C 2.71875,-3.203125 2.546875,-2.53125 2.1875,-1.140625 C 2.015625,-0.53125 1.671875,-0.109375 1.234375,-0.109375 C 1.171875,-0.109375 0.953125,-0.109375 0.734375,-0.234375 C 0.984375,-0.28125 1.203125,-0.5 1.203125,-0.78125 C 1.203125,-1.046875 0.984375,-1.125 0.84375,-1.125 C 0.53125,-1.125 0.28125,-0.859375 0.28125,-0.546875 C 0.28125,-0.09375 0.78125,0.109375 1.21875,0.109375 C 1.875,0.109375 2.234375,-0.59375 2.265625,-0.640625 C 2.390625,-0.28125 2.75,0.109375 3.34375,0.109375 C 4.375,0.109375 4.9375,-1.171875 4.9375,-1.421875 C 4.9375,-1.515625 4.84375,-1.515625 4.8125,-1.515625 C 4.734375,-1.515625 4.703125,-1.484375 4.6875,-1.40625 C 4.359375,-0.34375 3.6875,-0.109375 3.359375,-0.109375 C 2.96875,-0.109375 2.8125,-0.421875 2.8125,-0.765625 C 2.8125,-0.984375 2.875,-1.203125 2.984375,-1.640625 L 3.328125,-3 z"
               style="stroke:none" />
          </symbol>
          <symbol
             style="overflow:visible"
             id="textext-ead02958-1"
             overflow="visible">
            <path
               id="path4132"
               d="M 2.03125,-3.296875 C 2.0625,-3.359375 2.078125,-3.421875 2.078125,-3.515625 C 2.078125,-3.734375 1.890625,-3.890625 1.671875,-3.890625 C 1.390625,-3.890625 1.328125,-3.671875 1.296875,-3.578125 L 0.375,-0.5625 C 0.359375,-0.53125 0.328125,-0.453125 0.328125,-0.4375 C 0.328125,-0.359375 0.546875,-0.28125 0.609375,-0.28125 C 0.65625,-0.28125 0.6875,-0.328125 0.703125,-0.390625 L 2.03125,-3.296875 z"
               style="stroke:none" />
          </symbol>
        </g>
      </defs>
      <g
         id="textext-ead02958-2">
        <g
           id="g4135"
           style="opacity:1;fill:#000000">
          <use
             height="1052.3622"
             width="744.09448"
             id="use4137"
             y="134.76469"
             x="391.04321"
             xlink:href="#textext-ead02958-0" />
        </g>
        <g
           id="g4139"
           style="opacity:1;fill:#000000">
          <use
             height="1052.3622"
             width="744.09448"
             id="use4141"
             y="130.6512"
             x="396.73709"
             xlink:href="#textext-ead02958-1" />
        </g>
      </g>
    </g>
    <g
       transform="matrix(1.065593,-0.2380728,0.2380728,1.065593,-399.09048,446.11568)"
       ns0:text="$$y\'$$\n"
       ns0:preamble=""
       id="g4467">
      <defs
         id="defs4469">
        <g
           id="g4471">
          <symbol
             style="overflow:visible"
             overflow="visible"
             id="textext-3d0f108b-0">
            <path
               style="stroke:none"
               d="M 2.03125,-3.296875 C 2.0625,-3.359375 2.078125,-3.421875 2.078125,-3.515625 C 2.078125,-3.734375 1.890625,-3.890625 1.671875,-3.890625 C 1.390625,-3.890625 1.328125,-3.671875 1.296875,-3.578125 L 0.375,-0.5625 C 0.359375,-0.53125 0.328125,-0.453125 0.328125,-0.4375 C 0.328125,-0.359375 0.546875,-0.28125 0.609375,-0.28125 C 0.65625,-0.28125 0.6875,-0.328125 0.703125,-0.390625 L 2.03125,-3.296875 z"
               id="path4474" />
          </symbol>
          <symbol
             style="overflow:visible"
             overflow="visible"
             id="textext-3d0f108b-1">
            <path
               style="stroke:none"
               d="M 4.84375,-3.796875 C 4.875,-3.9375 4.875,-3.953125 4.875,-4.015625 C 4.875,-4.203125 4.734375,-4.296875 4.59375,-4.296875 C 4.484375,-4.296875 4.328125,-4.234375 4.234375,-4.078125 C 4.21875,-4.03125 4.140625,-3.71875 4.09375,-3.546875 C 4.03125,-3.28125 3.96875,-3.015625 3.90625,-2.75 L 3.453125,-0.953125 C 3.40625,-0.8125 2.984375,-0.109375 2.328125,-0.109375 C 1.828125,-0.109375 1.71875,-0.546875 1.71875,-0.921875 C 1.71875,-1.375 1.875,-1.984375 2.21875,-2.859375 C 2.375,-3.28125 2.421875,-3.390625 2.421875,-3.578125 C 2.421875,-4.03125 2.09375,-4.40625 1.609375,-4.40625 C 0.65625,-4.40625 0.28125,-2.953125 0.28125,-2.859375 C 0.28125,-2.765625 0.390625,-2.765625 0.40625,-2.765625 C 0.5,-2.765625 0.515625,-2.78125 0.5625,-2.953125 C 0.84375,-3.875 1.234375,-4.1875 1.578125,-4.1875 C 1.65625,-4.1875 1.828125,-4.1875 1.828125,-3.859375 C 1.828125,-3.609375 1.71875,-3.359375 1.65625,-3.171875 C 1.25,-2.109375 1.078125,-1.546875 1.078125,-1.078125 C 1.078125,-0.1875 1.703125,0.109375 2.296875,0.109375 C 2.671875,0.109375 3.015625,-0.0625 3.296875,-0.34375 C 3.171875,0.171875 3.046875,0.671875 2.640625,1.1875 C 2.390625,1.53125 2.015625,1.828125 1.546875,1.828125 C 1.40625,1.828125 0.96875,1.796875 0.796875,1.40625 C 0.953125,1.40625 1.078125,1.40625 1.21875,1.28125 C 1.328125,1.1875 1.421875,1.0625 1.421875,0.875 C 1.421875,0.5625 1.15625,0.53125 1.0625,0.53125 C 0.828125,0.53125 0.5,0.6875 0.5,1.171875 C 0.5,1.671875 0.9375,2.046875 1.546875,2.046875 C 2.578125,2.046875 3.609375,1.140625 3.875,0.015625 L 4.84375,-3.796875 z"
               id="path4477" />
          </symbol>
        </g>
      </defs>
      <g
         id="textext-3d0f108b-2">
        <g
           style="opacity:1;fill:#000000"
           id="g4480">
          <use
             height="1052.3622"
             width="744.09448"
             xlink:href="#textext-3d0f108b-1"
             x="391.2692"
             y="134.76469"
             id="use4482" />
        </g>
        <g
           style="opacity:1;fill:#000000"
           id="g4484">
          <use
             height="1052.3622"
             width="744.09448"
             xlink:href="#textext-3d0f108b-0"
             x="396.51111"
             y="130.6512"
             id="use4486" />
        </g>
      </g>
    </g>
    <g
       transform="matrix(0.5362143,-0.1198,0.1198,0.5362143,-82.608473,534.67036)"
       ns0:text="$$\\sigma_{2}$$\n"
       ns0:preamble=""
       id="g5149">
      <defs
         id="defs5151">
        <g
           id="g5153">
          <symbol
             overflow="visible"
             id="textext-3d7cffae-0"
             style="overflow:visible">
            <path
               style="stroke:none"
               d="M 3.515625,-1.265625 L 3.28125,-1.265625 C 3.265625,-1.109375 3.1875,-0.703125 3.09375,-0.640625 C 3.046875,-0.59375 2.515625,-0.59375 2.40625,-0.59375 L 1.125,-0.59375 C 1.859375,-1.234375 2.109375,-1.4375 2.515625,-1.765625 C 3.03125,-2.171875 3.515625,-2.609375 3.515625,-3.265625 C 3.515625,-4.109375 2.78125,-4.625 1.890625,-4.625 C 1.03125,-4.625 0.4375,-4.015625 0.4375,-3.375 C 0.4375,-3.03125 0.734375,-2.984375 0.8125,-2.984375 C 0.96875,-2.984375 1.171875,-3.109375 1.171875,-3.359375 C 1.171875,-3.484375 1.125,-3.734375 0.765625,-3.734375 C 0.984375,-4.21875 1.453125,-4.375 1.78125,-4.375 C 2.484375,-4.375 2.84375,-3.828125 2.84375,-3.265625 C 2.84375,-2.65625 2.40625,-2.1875 2.1875,-1.9375 L 0.515625,-0.265625 C 0.4375,-0.203125 0.4375,-0.1875 0.4375,0 L 3.3125,0 L 3.515625,-1.265625 z"
               id="path5156" />
          </symbol>
          <symbol
             overflow="visible"
             id="textext-3d7cffae-1"
             style="overflow:visible">
            <path
               style="stroke:none"
               d="M 5.15625,-3.71875 C 5.28125,-3.71875 5.640625,-3.71875 5.640625,-4.046875 C 5.640625,-4.296875 5.4375,-4.296875 5.25,-4.296875 L 2.984375,-4.296875 C 1.484375,-4.296875 0.375,-2.640625 0.375,-1.46875 C 0.375,-0.59375 0.96875,0.109375 1.875,0.109375 C 3.046875,0.109375 4.375,-1.09375 4.375,-2.625 C 4.375,-2.796875 4.375,-3.28125 4.0625,-3.71875 L 5.15625,-3.71875 z M 1.875,-0.109375 C 1.390625,-0.109375 1,-0.46875 1,-1.1875 C 1,-1.484375 1.109375,-2.296875 1.46875,-2.890625 C 1.875,-3.578125 2.484375,-3.71875 2.8125,-3.71875 C 3.65625,-3.71875 3.734375,-3.0625 3.734375,-2.75 C 3.734375,-2.28125 3.53125,-1.46875 3.1875,-0.953125 C 2.8125,-0.375 2.265625,-0.109375 1.875,-0.109375 z"
               id="path5159" />
          </symbol>
        </g>
      </defs>
      <g
         id="textext-3d7cffae-2">
        <g
           style="opacity:1;fill:#000000"
           id="g5162">
          <use
             xlink:href="#textext-3d7cffae-1"
             x="390.2066"
             y="134.76469"
             id="use5164"
             width="744.09448"
             height="1052.3622"
             transform="translate(0.7083361,21.28437)" />
        </g>
        <g
           style="opacity:1;fill:#000000"
           id="g5166">
          <use
             xlink:href="#textext-3d7cffae-0"
             x="395.89941"
             y="136.25909"
             id="use5168"
             width="744.09448"
             height="1052.3622" />
        </g>
      </g>
    </g>
    <g
       id="g5520"
       ns0:preamble=""
       ns0:text="$$\\sigma_{1}$$\n"
       transform="matrix(0.5362143,-0.1198,0.1198,0.5362143,-44.787432,491.66594)">
      <defs
         id="defs5522">
        <g
           id="g5524">
          <symbol
             id="textext-dd961316-0"
             overflow="visible"
             style="overflow:visible">
            <path
               id="path5527"
               d="M 2.328125,-4.4375 C 2.328125,-4.625 2.328125,-4.625 2.125,-4.625 C 1.671875,-4.1875 1.046875,-4.1875 0.765625,-4.1875 L 0.765625,-3.9375 C 0.921875,-3.9375 1.390625,-3.9375 1.765625,-4.125 L 1.765625,-0.578125 C 1.765625,-0.34375 1.765625,-0.25 1.078125,-0.25 L 0.8125,-0.25 L 0.8125,0 C 0.9375,0 1.796875,-0.03125 2.046875,-0.03125 C 2.265625,-0.03125 3.140625,0 3.296875,0 L 3.296875,-0.25 L 3.03125,-0.25 C 2.328125,-0.25 2.328125,-0.34375 2.328125,-0.578125 L 2.328125,-4.4375 z"
               style="stroke:none" />
          </symbol>
          <symbol
             id="textext-dd961316-1"
             overflow="visible"
             style="overflow:visible">
            <path
               id="path5530"
               d="M 5.15625,-3.71875 C 5.28125,-3.71875 5.640625,-3.71875 5.640625,-4.046875 C 5.640625,-4.296875 5.4375,-4.296875 5.25,-4.296875 L 2.984375,-4.296875 C 1.484375,-4.296875 0.375,-2.640625 0.375,-1.46875 C 0.375,-0.59375 0.96875,0.109375 1.875,0.109375 C 3.046875,0.109375 4.375,-1.09375 4.375,-2.625 C 4.375,-2.796875 4.375,-3.28125 4.0625,-3.71875 L 5.15625,-3.71875 z M 1.875,-0.109375 C 1.390625,-0.109375 1,-0.46875 1,-1.1875 C 1,-1.484375 1.109375,-2.296875 1.46875,-2.890625 C 1.875,-3.578125 2.484375,-3.71875 2.8125,-3.71875 C 3.65625,-3.71875 3.734375,-3.0625 3.734375,-2.75 C 3.734375,-2.28125 3.53125,-1.46875 3.1875,-0.953125 C 2.8125,-0.375 2.265625,-0.109375 1.875,-0.109375 z"
               style="stroke:none" />
          </symbol>
        </g>
      </defs>
      <g
         id="textext-dd961316-2">
        <g
           id="g5533"
           style="opacity:1;fill:#000000">
          <use
             id="use5535"
             y="134.76469"
             x="390.2066"
             xlink:href="#textext-dd961316-1"
             width="744.09448"
             height="1052.3622"
             transform="translate(0.7083361,21.28437)" />
        </g>
        <g
           id="g5537"
           style="opacity:1;fill:#000000">
          <use
             id="use5539"
             y="136.25909"
             x="395.89941"
             xlink:href="#textext-dd961316-0"
             width="744.09448"
             height="1052.3622"
             transform="translate(0.7083361,21.28437)" />
        </g>
      </g>
    </g>
    <path
       sodipodi:nodetypes="cc"
       id="path7035"
       d="M 145.62495,578.85528 C 147.8092,582.78769 148.47094,587.27387 147.00602,592.66595"
       style="fill:none;fill-opacity:0.75000000000000000;fill-rule:evenodd;stroke:#000000;stroke-width:0.5;stroke-linecap:butt;stroke-linejoin:miter;stroke-opacity:1;stroke-miterlimit:4;stroke-dasharray:none" />
    <g
       id="g7146"
       ns0:preamble=""
       ns0:text="$$\\theta$$"
       transform="translate(-254.41283,455.32423)">
      <defs
         id="defs7148">
        <g
           id="g7150">
          <symbol
             id="textext-23bd3e97-0"
             overflow="visible"
             style="overflow:visible">
            <path
               id="path7153"
               d="M 4.53125,-4.96875 C 4.53125,-5.640625 4.34375,-7.015625 3.328125,-7.015625 C 1.953125,-7.015625 0.421875,-4.203125 0.421875,-1.9375 C 0.421875,-1 0.703125,0.109375 1.609375,0.109375 C 3.015625,0.109375 4.53125,-2.75 4.53125,-4.96875 z M 1.46875,-3.609375 C 1.640625,-4.25 1.84375,-5.046875 2.234375,-5.75 C 2.515625,-6.234375 2.875,-6.796875 3.328125,-6.796875 C 3.8125,-6.796875 3.875,-6.15625 3.875,-5.59375 C 3.875,-5.109375 3.796875,-4.59375 3.546875,-3.609375 L 1.46875,-3.609375 z M 3.46875,-3.296875 C 3.359375,-2.84375 3.140625,-1.984375 2.765625,-1.28125 C 2.421875,-0.59375 2.046875,-0.109375 1.609375,-0.109375 C 1.28125,-0.109375 1.078125,-0.390625 1.078125,-1.328125 C 1.078125,-1.734375 1.140625,-2.3125 1.390625,-3.296875 L 3.46875,-3.296875 z"
               style="stroke:none" />
          </symbol>
        </g>
      </defs>
      <g
         id="textext-23bd3e97-1">
        <g
           id="g7156"
           style="opacity:1;fill:#000000">
          <use
             id="use7158"
             y="134.76469"
             x="392.81079"
             xlink:href="#textext-23bd3e97-0"
             width="744.09448"
             height="1052.3622" />
        </g>
      </g>
    </g>
  </g>
  <g
     id="g4683"
     ns0:preamble=""
     ns0:text="$$\\sigma_{11}$$"
     svg:text-anchor="start"
     svg:word-spacing="normal"
     svg:letter-spacing="normal"
     svg:font-size-adjust="none"
     svg:font-stretch="normal"
     svg:font-weight="normal"
     svg:font-variant="normal"
     svg:font-style="normal"
     svg:fill-opacity="1"
     svg:fill-rule="even-odd"
     svg:fill="none"
     svg:stroke-opacity="1"
     svg:stroke-dashoffset="0"
     svg:stroke-dasharray="none"
     svg:stroke-miterlimit="10.433"
     svg:stroke-linejoin="miter"
     svg:stroke-linecap="butt"
     svg:stroke="black"
     svg:transform="matrix(1.000000,0,0,-1.000000,-200.000000,750.000000)"
     svg:id="content"
     xml:space="preserve">
<path
   id="path4685"
   svg:fill="black"
   svg:stroke-width="0"
   svg:d="M393.38,710.84 L393.4,710.84 L393.41,710.84 L393.43,710.84 L393.44,710.84 L393.46,710.84 L393.48,710.84 L393.49,710.84 L393.51,710.84 L393.53,710.85 L393.55,710.85 L393.57,710.85 L393.59,710.86 L393.62,710.86 L393.64,710.87 L393.66,710.87 L393.68,710.88 L393.7,710.89 L393.71,710.9 L393.73,710.91 L393.75,710.92 L393.77,710.93 L393.78,710.95 L393.79,710.96 L393.8,710.96 L393.81,710.97 L393.81,710.98 L393.82,710.99 L393.83,711 L393.83,711.01 L393.84,711.02 L393.84,711.03 L393.85,711.04 L393.85,711.05 L393.86,711.07 L393.86,711.08 L393.86,711.09 L393.86,711.1 L393.87,711.12 L393.87,711.13 L393.87,711.15 L393.87,711.16 L393.87,711.18 C393.87,711.42,393.66,711.42,393.48,711.42 H391.21 C389.71,711.42,388.6,709.77,388.6,708.59 C388.6,707.71,389.19,707.01,390.1,707.01 L390.11,707.23 C389.62,707.23,389.22,707.59,389.22,708.31 C389.22,708.61,389.34,709.42,389.69,710.01 C390.11,710.7,390.7,710.84,391.04,710.84 C391.88,710.84,391.96,710.18,391.96,709.87 C391.96,709.4,391.76,708.59,391.42,708.08 C391.03,707.49,390.49,707.23,390.11,707.23 H390.11 L390.1,707.01 C391.27,707.01,392.6,708.22,392.6,709.75 C392.6,709.92,392.6,710.4,392.29,710.84 Z " />
<path
   id="path4687"
   svg:fill="black"
   svg:stroke-width="0"
   svg:d="M396.25,710.07 L396.25,710.07 L396.25,710.08 L396.25,710.09 L396.25,710.1 L396.25,710.11 L396.25,710.11 L396.25,710.12 L396.25,710.13 L396.25,710.13 L396.25,710.14 L396.25,710.15 L396.25,710.15 L396.25,710.16 L396.25,710.16 L396.25,710.17 L396.25,710.18 L396.24,710.18 L396.24,710.19 L396.24,710.19 L396.24,710.2 L396.24,710.21 L396.23,710.22 L396.23,710.22 L396.22,710.23 L396.22,710.23 L396.21,710.24 L396.21,710.24 L396.2,710.25 L396.19,710.25 L396.19,710.25 L396.18,710.25 L396.17,710.26 L396.16,710.26 L396.16,710.26 L396.15,710.26 L396.15,710.26 L396.14,710.26 L396.13,710.26 L396.13,710.26 L396.12,710.26 L396.11,710.26 L396.11,710.26 L396.1,710.26 L396.09,710.26 L396.08,710.26 L396.08,710.26 L396.07,710.26 L396.06,710.26 L396.05,710.26 L396.04,710.26 C395.6,709.82,394.96,709.81,394.67,709.81 V709.56 C394.84,709.56,395.3,709.56,395.69,709.76 V706.2 C395.69,705.97,395.69,705.88,394.99,705.88 H394.72 V705.63 C394.85,705.64,395.71,705.66,395.96,705.66 C396.18,705.66,397.06,705.64,397.21,705.63 V705.88 H396.95 C396.25,705.88,396.25,705.97,396.25,706.2 Z " />
<path
   id="path4689"
   svg:fill="black"
   svg:stroke-width="0"
   svg:d="M400.22,710.07 L400.22,710.07 L400.22,710.08 L400.22,710.09 L400.22,710.1 L400.22,710.11 L400.22,710.11 L400.22,710.12 L400.22,710.13 L400.22,710.13 L400.22,710.14 L400.22,710.15 L400.22,710.15 L400.22,710.16 L400.22,710.16 L400.21,710.17 L400.21,710.18 L400.21,710.18 L400.21,710.19 L400.21,710.19 L400.21,710.2 L400.2,710.21 L400.2,710.22 L400.2,710.22 L400.19,710.23 L400.19,710.23 L400.18,710.24 L400.18,710.24 L400.17,710.25 L400.16,710.25 L400.15,710.25 L400.14,710.25 L400.14,710.26 L400.13,710.26 L400.12,710.26 L400.12,710.26 L400.11,710.26 L400.11,710.26 L400.1,710.26 L400.1,710.26 L400.09,710.26 L400.08,710.26 L400.07,710.26 L400.07,710.26 L400.06,710.26 L400.05,710.26 L400.04,710.26 L400.04,710.26 L400.03,710.26 L400.02,710.26 L400.01,710.26 C399.56,709.82,398.93,709.81,398.64,709.81 V709.56 C398.81,709.56,399.27,709.56,399.65,709.76 V706.2 C399.65,705.97,399.65,705.88,398.96,705.88 H398.69 V705.63 C398.82,705.64,399.67,705.66,399.93,705.66 C400.15,705.66,401.03,705.64,401.18,705.63 V705.88 H400.92 C400.22,705.88,400.22,705.97,400.22,706.2 Z " />
</g>  <flowRoot
     xml:space="preserve"
     id="flowRoot4718"
     style="fill:black;fill-opacity:1;stroke:none;stroke-opacity:1;stroke-width:1px;stroke-linejoin:miter;stroke-linecap:butt;font-family:Bitstream Vera Sans;font-style:normal;font-weight:normal;font-size:12px"><flowRegion
       id="flowRegion4720"><rect
         id="rect4722"
         width="63.272541"
         height="57.968258"
         x="214.0658"
         y="438.58063" /></flowRegion><flowPara
       id="flowPara4724" /></flowRoot>  <g
     xml:space="preserve"
     svg:id="content"
     svg:transform="matrix(1.000000,0,0,-1.000000,-200.000000,750.000000)"
     svg:stroke="black"
     svg:stroke-linecap="butt"
     svg:stroke-linejoin="miter"
     svg:stroke-miterlimit="10.433"
     svg:stroke-dasharray="none"
     svg:stroke-dashoffset="0"
     svg:stroke-opacity="1"
     svg:fill="none"
     svg:fill-rule="even-odd"
     svg:fill-opacity="1"
     svg:font-style="normal"
     svg:font-variant="normal"
     svg:font-weight="normal"
     svg:font-stretch="normal"
     svg:font-size-adjust="none"
     svg:letter-spacing="normal"
     svg:word-spacing="normal"
     svg:text-anchor="start"
     ns0:text="$$\\sigma$$"
     ns0:preamble=""
     id="g4759">
<path
   svg:d="M397.43,710.84 L397.44,710.84 L397.45,710.84 L397.47,710.84 L397.48,710.84 L397.5,710.84 L397.52,710.84 L397.54,710.84 L397.56,710.84 L397.58,710.85 L397.6,710.85 L397.62,710.85 L397.64,710.86 L397.66,710.86 L397.68,710.87 L397.7,710.87 L397.72,710.88 L397.74,710.89 L397.76,710.9 L397.78,710.91 L397.79,710.92 L397.81,710.93 L397.83,710.95 L397.83,710.96 L397.84,710.96 L397.85,710.97 L397.86,710.98 L397.86,710.99 L397.87,711 L397.87,711.01 L397.88,711.02 L397.89,711.03 L397.89,711.04 L397.89,711.05 L397.9,711.07 L397.9,711.08 L397.91,711.09 L397.91,711.1 L397.91,711.12 L397.91,711.13 L397.91,711.15 L397.91,711.16 L397.91,711.18 C397.91,711.42,397.7,711.42,397.52,711.42 H395.25 C393.75,711.42,392.64,709.77,392.64,708.59 C392.64,707.71,393.23,707.01,394.14,707.01 L394.15,707.23 C393.66,707.23,393.26,707.59,393.26,708.31 C393.26,708.61,393.38,709.42,393.73,710.01 C394.15,710.7,394.75,710.84,395.08,710.84 C395.92,710.84,396,710.18,396,709.87 C396,709.4,395.8,708.59,395.46,708.08 C395.07,707.49,394.54,707.23,394.15,707.23 H394.15 L394.14,707.01 C395.31,707.01,396.64,708.22,396.64,709.75 C396.64,709.92,396.64,710.4,396.33,710.84 Z "
   svg:stroke-width="0"
   svg:fill="black"
   id="path4761" />
</g>  <g
     id="g4916"
     ns0:preamble=""
     ns0:text="$\\sigma$"
     svg:text-anchor="start"
     svg:word-spacing="normal"
     svg:letter-spacing="normal"
     svg:font-size-adjust="none"
     svg:font-stretch="normal"
     svg:font-weight="normal"
     svg:font-variant="normal"
     svg:font-style="normal"
     svg:fill-opacity="1"
     svg:fill-rule="even-odd"
     svg:fill="none"
     svg:stroke-opacity="1"
     svg:stroke-dashoffset="0"
     svg:stroke-dasharray="none"
     svg:stroke-miterlimit="10.433"
     svg:stroke-linejoin="miter"
     svg:stroke-linecap="butt"
     svg:stroke="black"
     svg:transform="matrix(10.000000,0,0,-10.000000,-2000.000000,7500.000000)"
     svg:id="content"
     xml:space="preserve">
<path
   id="path4918"
   svg:fill="black"
   svg:stroke-width="0"
   svg:d="M228.59,710.84 L228.61,710.84 L228.62,710.84 L228.64,710.84 L228.65,710.84 L228.67,710.84 L228.69,710.84 L228.7,710.84 L228.72,710.84 L228.74,710.85 L228.76,710.85 L228.78,710.85 L228.8,710.86 L228.83,710.86 L228.85,710.87 L228.87,710.87 L228.89,710.88 L228.91,710.89 L228.92,710.9 L228.94,710.91 L228.96,710.92 L228.98,710.93 L228.99,710.95 L229,710.96 L229.01,710.96 L229.02,710.97 L229.02,710.98 L229.03,710.99 L229.04,711 L229.04,711.01 L229.05,711.02 L229.05,711.03 L229.06,711.04 L229.06,711.05 L229.07,711.07 L229.07,711.08 L229.07,711.09 L229.07,711.1 L229.08,711.12 L229.08,711.13 L229.08,711.15 L229.08,711.16 L229.08,711.18 C229.08,711.42,228.87,711.42,228.69,711.42 H226.42 C224.92,711.42,223.81,709.77,223.81,708.59 C223.81,707.71,224.4,707.01,225.3,707.01 L225.32,707.23 C224.83,707.23,224.43,707.59,224.43,708.31 C224.43,708.61,224.55,709.42,224.9,710.01 C225.32,710.7,225.91,710.84,226.25,710.84 C227.09,710.84,227.17,710.18,227.17,709.87 C227.17,709.4,226.97,708.59,226.63,708.08 C226.24,707.49,225.7,707.23,225.32,707.23 H225.32 L225.3,707.01 C226.48,707.01,227.81,708.22,227.81,709.75 C227.81,709.92,227.81,710.4,227.5,710.84 Z " />
</g>  <g
     svg:transform="scale(1.000000,1.000000)"
     ns0:text="$\\sigma$\n"
     ns0:preamble=""
     id="g4994">
    <defs
       id="defs4996">
      <g
         id="g4998">
        <symbol
           svg:overflow="visible"
           svg:id="textext-d3b58dfe-0"
           id="symbol5000">
          <path
             svg:style="stroke: none;"
             svg:d="M 5.15625 -3.71875 C 5.28125 -3.71875 5.640625 -3.71875 5.640625 -4.046875 C 5.640625 -4.296875 5.4375 -4.296875 5.25 -4.296875 L 2.984375 -4.296875 C 1.484375 -4.296875 0.375 -2.640625 0.375 -1.46875 C 0.375 -0.59375 0.96875 0.109375 1.875 0.109375 C 3.046875 0.109375 4.375 -1.09375 4.375 -2.625 C 4.375 -2.796875 4.375 -3.28125 4.0625 -3.71875 L 5.15625 -3.71875 Z M 1.875 -0.109375 C 1.390625 -0.109375 1 -0.46875 1 -1.1875 C 1 -1.484375 1.109375 -2.296875 1.46875 -2.890625 C 1.875 -3.578125 2.484375 -3.71875 2.8125 -3.71875 C 3.65625 -3.71875 3.734375 -3.0625 3.734375 -2.75 C 3.734375 -2.28125 3.53125 -1.46875 3.1875 -0.953125 C 2.8125 -0.375 2.265625 -0.109375 1.875 -0.109375 Z M 1.875 -0.109375 "
             id="path5002" />
        </symbol>
      </g>
    </defs>
    <g
       svg:id="textext-d3b58dfe-1"
       id="g5004">
      <g
         svg:style="fill: rgb(0%,0%,0%); opacity: 1;"
         id="g5006">
        <use
           xlink:href="#textext-d3b58dfe-0"
           svg:x="223.4321"
           svg:y="134.7647"
           id="use5008" />
      </g>
    </g>
  </g>
</svg>
